<?xml version="1.0" encoding="UTF-8"?>
<svg width="34px" height="35px" viewBox="0 0 34 35" version="1.1" xmlns="http://www.w3.org/2000/svg" xmlns:xlink="http://www.w3.org/1999/xlink">
    <!-- Generator: Sketch 49 (51002) - http://www.bohemiancoding.com/sketch -->
    <title>ic/点赞</title>
    <desc>Created with Sketch.</desc>
    <defs></defs>
    <g id="0522_详情页改版" stroke="none" stroke-width="1" fill="none" fill-rule="evenodd">
        <g id="0611_详情页优化" transform="translate(-76.000000, -2563.000000)">
            <g id="喜欢" transform="translate(30.000000, 2542.000000)">
                <g id="ic/点赞" transform="translate(43.000000, 20.000000)">
                    <path d="M26.1025391,33.3171387 L32.112104,14.1542155 L36.1689379,15.5708822 C35.0750843,26.4572754 32.6392687,32.3726942 28.8614909,33.3171387 C28.8614909,33.3171387 27.9418403,33.3171387 26.1025391,33.3171387 Z" id="Path-3" fill-opacity="0.28" fill="#FF7E6F"></path>
                    <rect id="Rectangle-6" fill-opacity="0.28" fill="#FF7E6F" x="5" y="16" width="4.66893788" height="17.9875488"></rect>
                    <path d="M5.50502883,34.045051 C19.5461605,34.0174026 26.6199644,34.0035784 26.7264404,34.0035784 C29.6685168,34.0035784 30.6226807,32.8267822 31.0373272,32.197469 C33.4896626,28.5510461 36.0085685,20.4627291 36.0085685,18.3088572 C36.0085685,15.0260219 33.7155488,14.0104221 31.7585685,13.9934476 C31.7466777,13.9951811 29.8701787,13.9952855 26.1290714,13.9937608 L26.1290714,13.9937737 C25.8529219,13.9936612 25.6291498,13.7697065 25.6292623,13.4935571 C25.6292873,13.4323441 25.640552,13.3716561 25.6624962,13.3145117 C26.6392637,10.7709314 27.0861777,7.99183772 27.0032381,4.97723067 C26.8796258,1.13517681 20.2608643,1.00854492 20.0053219,4.97723067 C19.5343018,10.9522705 13.7205495,14.9240084 11.0856045,15.0032762 C9.22442809,15.0032762 7.36325164,15.0032762 5.5020752,15.0032762 L5.5020752,15.0032762 C4.67364807,15.0032762 4.0020752,15.6748491 4.0020752,16.5032762 L4.00208328,32.545062 C4.00208328,33.3734847 4.67365254,34.0450539 5.5020752,34.0450539 C5.50305974,34.0450539 5.50404428,34.045053 5.50502883,34.045051 Z" id="Path-2" stroke="#FF7E6F" stroke-width="2"></path>
                    <path d="M10.0155029,34.0338135 L10.0155029,15.03188" id="Path-4" stroke="#FF7E6F" stroke-width="2"></path>
                </g>
            </g>
        </g>
    </g>
</svg>